<svg width="10" height="13" viewBox="0 0 10 13" fill="none" xmlns="http://www.w3.org/2000/svg">
<path fill-rule="evenodd" clip-rule="evenodd" d="M4.53854 12.8413L4.54225 12.8441L4.54402 12.8455C4.81 13.05 5.19 13.05 5.45647 12.8451L5.45775 12.8441L5.46146 12.8413L5.47342 12.832C5.48058 12.8264 5.48976 12.8192 5.50087 12.8104C5.50524 12.8069 5.5099 12.8032 5.51485 12.7993C5.54997 12.7713 5.59982 12.7311 5.66228 12.6791C5.78713 12.5752 5.96279 12.4243 6.17232 12.2312C6.59046 11.8459 7.1484 11.2881 7.70793 10.5969C8.81054 9.23485 10 7.25535 10 5C10 2.23858 7.76142 0 5 0C2.23858 0 0 2.23858 0 5C0 7.25535 1.18946 9.23485 2.29207 10.5969C2.8516 11.2881 3.40954 11.8459 3.82768 12.2312C4.03721 12.4243 4.21286 12.5752 4.33772 12.6791C4.40018 12.7311 4.45003 12.7713 4.48515 12.7993C4.50272 12.8133 4.51661 12.8242 4.52658 12.832L4.53854 12.8413ZM5 6.5C5.82843 6.5 6.5 5.82843 6.5 5C6.5 4.17157 5.82843 3.5 5 3.5C4.17157 3.5 3.5 4.17157 3.5 5C3.5 5.82843 4.17157 6.5 5 6.5Z" fill="#5D5D5D"/>
</svg>
