<svg width="25" height="24" viewBox="0 0 25 24" fill="none" xmlns="http://www.w3.org/2000/svg">
<path d="M20.75 14.1499V18.4C20.75 19.4944 19.9631 20.4359 18.8782 20.58C16.7915 20.857 14.6624 21 12.5 21C10.3376 21 8.20854 20.857 6.12185 20.58C5.0369 20.4359 4.25 19.4944 4.25 18.4V14.1499M20.75 14.1499C21.2219 13.7476 21.5 13.1389 21.5 12.4889V8.70569C21.5 7.62475 20.7321 6.69082 19.6631 6.53086C18.5377 6.36247 17.3995 6.23315 16.25 6.14432M20.75 14.1499C20.5564 14.315 20.3302 14.4453 20.0771 14.5294C17.6953 15.3212 15.1477 15.75 12.5 15.75C9.85229 15.75 7.30469 15.3212 4.92289 14.5294C4.66984 14.4452 4.44361 14.3149 4.25 14.1499M4.25 14.1499C3.77808 13.7476 3.5 13.1389 3.5 12.4889V8.70569C3.5 7.62475 4.2679 6.69082 5.33694 6.53086C6.46233 6.36247 7.60049 6.23315 8.75 6.14432M16.25 6.14432V5.25C16.25 4.00736 15.2426 3 14 3H11C9.75736 3 8.75 4.00736 8.75 5.25V6.14432M16.25 6.14432C15.0126 6.0487 13.762 6 12.5 6C11.238 6 9.98744 6.0487 8.75 6.14432M12.5 12.75H12.5075V12.7575H12.5V12.75Z" stroke="#2559EB" stroke-width="1.5" stroke-linecap="round" stroke-linejoin="round"/>
</svg>
