<svg width="64" height="64" viewBox="0 0 64 64" fill="none" xmlns="http://www.w3.org/2000/svg">
<path d="M18.6665 26.6667V26.6721H18.6612V26.6667H18.6665Z" stroke="#262626" stroke-width="2" stroke-linecap="round" stroke-linejoin="round"/>
<path d="M24 40V40.0053H23.9947V40H24Z" stroke="#262626" stroke-width="2" stroke-linecap="round" stroke-linejoin="round"/>
<path d="M32 29.3333V29.3386H31.9947V29.3333H32Z" stroke="#262626" stroke-width="2" stroke-linecap="round" stroke-linejoin="round"/>
<path d="M37.3335 42.6667V42.6721H37.3282V42.6667H37.3335Z" stroke="#262626" stroke-width="2" stroke-linecap="round" stroke-linejoin="round"/>
<path d="M45.3335 8V8.00533H45.3282V8H45.3335Z" stroke="#262626" stroke-width="2" stroke-linecap="round" stroke-linejoin="round"/>
<path d="M56 21.3333V21.3386H55.9947V21.3333H56Z" stroke="#262626" stroke-width="2" stroke-linecap="round" stroke-linejoin="round"/>
<path d="M56 10.6667V10.6721H55.9947V10.6667H56Z" stroke="#262626" stroke-width="2" stroke-linecap="round" stroke-linejoin="round"/>
<path d="M32.0053 16.7547C33.3496 18.1068 35.0325 19.0729 36.878 19.5519C38.7235 20.0308 40.6638 20.0051 42.496 19.4773C41.969 21.3155 41.9426 23.261 42.4194 25.1129C42.8961 26.9647 43.8589 28.6555 45.208 30.0107C46.5901 31.4004 48.3293 32.3814 50.2337 32.8454C52.138 33.3094 54.1335 33.2383 56 32.64C55.824 38.7698 53.3133 44.6009 48.9813 48.9413C46.7565 51.1782 44.1115 52.9533 41.1984 54.1645C38.2853 55.3758 35.1615 55.9993 32.0067 55.9993C28.8518 55.9993 25.728 55.3758 22.8149 54.1645C19.9018 52.9533 17.2568 51.1782 15.032 48.9413C5.656 39.5307 5.656 24.2747 15.032 14.8613C18.7767 11.0885 23.6738 8.6737 28.9467 8C28.7682 9.59518 28.9504 11.2101 29.4798 12.7254C30.0092 14.2407 30.8723 15.6177 32.0053 16.7547Z" stroke="#262626" stroke-width="2" stroke-linecap="round" stroke-linejoin="round"/>
</svg>
