<svg width="24" height="24" viewBox="0 0 24 24" fill="none" xmlns="http://www.w3.org/2000/svg">
<path d="M21.6 11.9999C21.6 6.6974 17.3025 2.3999 12 2.3999C6.69753 2.3999 2.40002 6.6974 2.40002 11.9999C2.40002 16.4999 5.50128 20.2799 9.68253 21.3187V14.9324H7.70252V11.9999H9.68253V10.7362C9.68253 7.4699 11.16 5.9549 14.37 5.9549C14.9775 5.9549 16.0275 6.0749 16.4588 6.1949V8.8499C16.2338 8.8274 15.84 8.8124 15.3488 8.8124C13.7738 8.8124 13.1663 9.40865 13.1663 10.9574V11.9999H16.3013L15.7613 14.9324H13.1625V21.5287C17.9175 20.9549 21.6 16.9087 21.6 11.9999Z" fill="black"/>
</svg>
