<svg width="14" height="10" viewBox="0 0 14 10" fill="none" xmlns="http://www.w3.org/2000/svg">
<path d="M1.5 0C0.671573 0 0 0.671573 0 1.5V2.29294C0.0256828 2.30204 0.051129 2.31264 0.0762339 2.32476L6.67411 5.50994C6.88011 5.60939 7.12023 5.60939 7.32623 5.50994L13.9241 2.32476C13.9491 2.31269 13.9744 2.30214 14 2.29306V1.5C14 0.671573 13.3284 0 12.5 0H1.5Z" fill="#5D5D5D"/>
<path d="M14 3.95377L7.97836 6.86077C7.36036 7.15911 6.63999 7.15911 6.02199 6.86077L0 3.9536V8.5C0 9.32843 0.671573 10 1.5 10H12.5C13.3284 10 14 9.32843 14 8.5V3.95377Z" fill="#5D5D5D"/>
</svg>
