<svg width="12" height="12" viewBox="0 0 12 12" fill="none" xmlns="http://www.w3.org/2000/svg">
<path fill-rule="evenodd" clip-rule="evenodd" d="M1.85462 5.28621L2.92241 4.75232C3.31094 4.55805 3.52962 4.13518 3.46357 3.70584L3.02389 0.847943C2.94884 0.360111 2.52909 0 2.03552 0H1C0.447715 0 0 0.447715 0 1V3C0 3.70879 0.0820799 4.39936 0.237577 5.06237C1.01505 8.37735 3.62265 10.985 6.93763 11.7624C7.60064 11.9179 8.29121 12 9 12H11C11.5523 12 12 11.5523 12 11V9.96448C12 9.47091 11.6399 9.05116 11.1521 8.97611L8.29416 8.53643C7.86482 8.47038 7.44195 8.68906 7.24768 9.07759L6.71379 10.1454C4.4109 9.40917 2.59083 7.58911 1.85462 5.28621Z" fill="#5D5D5D"/>
</svg>
