<?xml version="1.0" encoding="UTF-8"?>
<svg xmlns="http://www.w3.org/2000/svg" xmlns:xlink="http://www.w3.org/1999/xlink" width="512px" height="512px" viewBox="0 0 128 128" version="1.1">
<g id="surface1">
<path style=" stroke:none;fill-rule:nonzero;fill:rgb(0%,0%,0%);fill-opacity:1;" d="M 58.328125 72.21875 C 58.558594 72.21875 58.789062 72.214844 59.023438 72.214844 C 59.398438 72.214844 59.398438 72.214844 59.78125 72.214844 C 60.035156 72.214844 60.289062 72.214844 60.550781 72.214844 C 61.089844 72.214844 61.628906 72.214844 62.167969 72.21875 C 62.996094 72.21875 63.824219 72.21875 64.652344 72.214844 C 65.175781 72.214844 65.695312 72.214844 66.21875 72.214844 C 66.46875 72.214844 66.71875 72.214844 66.976562 72.214844 C 67.203125 72.214844 67.433594 72.21875 67.671875 72.21875 C 67.871094 72.21875 68.074219 72.21875 68.285156 72.21875 C 68.75 72.25 68.75 72.25 69 72.5 C 69.023438 72.847656 69.03125 73.195312 69.03125 73.546875 C 69.03125 73.882812 69.03125 73.882812 69.03125 74.226562 C 69.03125 74.601562 69.03125 74.601562 69.027344 74.984375 C 69.027344 75.25 69.027344 75.515625 69.027344 75.789062 C 69.027344 76.648438 69.027344 77.511719 69.023438 78.375 C 69.023438 78.90625 69.023438 79.4375 69.023438 79.96875 C 69.023438 81.941406 69.019531 83.917969 69.015625 85.890625 C 69.011719 90.300781 69.003906 94.707031 69 99.25 C 78.984375 99.25 88.964844 99.25 99.25 99.25 C 99.25 92.320312 99.25 85.390625 99.25 78.25 C 100.117188 78.078125 100.75 77.96875 101.601562 77.96875 C 101.914062 77.964844 101.914062 77.964844 102.234375 77.964844 C 102.457031 77.964844 102.679688 77.964844 102.910156 77.964844 C 103.257812 77.964844 103.257812 77.964844 103.609375 77.964844 C 104.09375 77.964844 104.582031 77.964844 105.066406 77.96875 C 105.8125 77.96875 106.558594 77.96875 107.304688 77.964844 C 107.777344 77.964844 108.25 77.964844 108.722656 77.964844 C 108.945312 77.964844 109.171875 77.964844 109.402344 77.964844 C 110.972656 77.972656 110.972656 77.972656 111.25 78.25 C 111.273438 78.671875 111.28125 79.097656 111.28125 79.523438 C 111.28125 79.796875 111.28125 80.074219 111.285156 80.355469 C 111.28125 80.8125 111.28125 80.8125 111.28125 81.28125 C 111.28125 81.757812 111.28125 81.757812 111.285156 82.246094 C 111.285156 83.125 111.285156 84.003906 111.285156 84.878906 C 111.28125 85.796875 111.285156 86.714844 111.285156 87.628906 C 111.285156 89.167969 111.285156 90.707031 111.28125 92.246094 C 111.28125 94.03125 111.28125 95.8125 111.28125 97.59375 C 111.285156 99.121094 111.285156 100.648438 111.285156 102.175781 C 111.285156 103.089844 111.285156 104.003906 111.285156 104.917969 C 111.285156 105.933594 111.285156 106.953125 111.28125 107.96875 C 111.28125 108.273438 111.285156 108.578125 111.285156 108.894531 C 111.28125 109.304688 111.28125 109.304688 111.28125 109.726562 C 111.28125 109.96875 111.28125 110.210938 111.28125 110.457031 C 111.25 111 111.25 111 111 111.25 C 110.308594 111.273438 109.621094 111.285156 108.929688 111.28125 C 108.710938 111.28125 108.492188 111.28125 108.265625 111.28125 C 107.523438 111.285156 106.78125 111.28125 106.042969 111.28125 C 105.511719 111.28125 104.984375 111.28125 104.453125 111.285156 C 103.011719 111.285156 101.570312 111.285156 100.128906 111.285156 C 98.625 111.28125 97.121094 111.285156 95.613281 111.285156 C 93.085938 111.285156 90.558594 111.285156 88.03125 111.28125 C 85.101562 111.28125 82.175781 111.28125 79.25 111.28125 C 76.742188 111.285156 74.230469 111.285156 71.722656 111.285156 C 70.222656 111.285156 68.722656 111.285156 67.222656 111.285156 C 65.8125 111.285156 64.402344 111.285156 62.992188 111.28125 C 62.472656 111.28125 61.953125 111.28125 61.433594 111.28125 C 60.730469 111.285156 60.023438 111.28125 59.320312 111.28125 C 59.109375 111.28125 58.902344 111.28125 58.6875 111.285156 C 57.277344 111.277344 57.277344 111.277344 57 111 C 56.976562 110.40625 56.96875 109.820312 56.972656 109.226562 C 56.972656 109.042969 56.972656 108.855469 56.972656 108.664062 C 56.972656 108.050781 56.972656 107.433594 56.976562 106.820312 C 56.976562 106.394531 56.976562 105.96875 56.976562 105.542969 C 56.976562 104.421875 56.980469 103.296875 56.984375 102.175781 C 56.984375 101.03125 56.988281 99.886719 56.988281 98.742188 C 56.992188 96.496094 56.996094 94.246094 57 92 C 56.761719 92 56.523438 92 56.28125 92 C 54.046875 92.007812 51.8125 92.011719 49.582031 92.011719 C 48.433594 92.015625 47.285156 92.015625 46.136719 92.019531 C 45.03125 92.023438 43.921875 92.023438 42.816406 92.023438 C 42.390625 92.023438 41.96875 92.023438 41.546875 92.027344 C 40.953125 92.027344 40.363281 92.027344 39.773438 92.027344 C 39.597656 92.027344 39.417969 92.03125 39.238281 92.03125 C 38.027344 92.027344 38.027344 92.027344 37.75 91.75 C 37.726562 91.390625 37.71875 91.027344 37.722656 90.664062 C 37.722656 90.4375 37.722656 90.207031 37.722656 89.96875 C 37.722656 89.71875 37.722656 89.46875 37.726562 89.210938 C 37.726562 88.953125 37.726562 88.699219 37.726562 88.4375 C 37.726562 87.621094 37.730469 86.800781 37.734375 85.984375 C 37.734375 85.429688 37.738281 84.878906 37.738281 84.324219 C 37.742188 82.96875 37.746094 81.609375 37.75 80.25 C 38.484375 79.882812 39.222656 79.96875 40.027344 79.972656 C 40.300781 79.972656 40.300781 79.972656 40.582031 79.972656 C 41.1875 79.972656 41.792969 79.972656 42.398438 79.976562 C 42.820312 79.976562 43.238281 79.976562 43.660156 79.976562 C 44.765625 79.976562 45.871094 79.980469 46.976562 79.984375 C 48.105469 79.984375 49.230469 79.988281 50.359375 79.988281 C 52.574219 79.992188 54.785156 79.996094 57 80 C 57 79.773438 56.996094 79.546875 56.996094 79.316406 C 56.992188 78.480469 56.988281 77.644531 56.984375 76.808594 C 56.984375 76.449219 56.984375 76.085938 56.980469 75.722656 C 56.976562 75.203125 56.976562 74.683594 56.976562 74.164062 C 56.972656 73.851562 56.972656 73.539062 56.972656 73.21875 C 57.015625 72.097656 57.316406 72.21875 58.328125 72.21875 Z M 58.328125 72.21875 "/>
<path style=" stroke:none;fill-rule:nonzero;fill:rgb(0%,0%,0%);fill-opacity:1;" d="M 37.328125 37.71875 C 37.558594 37.71875 37.789062 37.714844 38.023438 37.714844 C 38.398438 37.714844 38.398438 37.714844 38.78125 37.714844 C 39.035156 37.714844 39.289062 37.714844 39.550781 37.714844 C 40.089844 37.714844 40.628906 37.714844 41.167969 37.71875 C 41.996094 37.71875 42.824219 37.71875 43.652344 37.714844 C 44.175781 37.714844 44.695312 37.714844 45.21875 37.714844 C 45.46875 37.714844 45.71875 37.714844 45.976562 37.714844 C 46.203125 37.714844 46.433594 37.71875 46.671875 37.71875 C 46.871094 37.71875 47.074219 37.71875 47.285156 37.71875 C 47.75 37.75 47.75 37.75 48 38 C 48.023438 38.59375 48.03125 39.179688 48.027344 39.773438 C 48.027344 39.957031 48.027344 40.144531 48.027344 40.335938 C 48.027344 40.949219 48.027344 41.566406 48.023438 42.179688 C 48.023438 42.605469 48.023438 43.03125 48.023438 43.457031 C 48.023438 44.578125 48.019531 45.703125 48.015625 46.824219 C 48.015625 47.96875 48.011719 49.113281 48.011719 50.257812 C 48.007812 52.503906 48.003906 54.753906 48 57 C 48.21875 57 48.433594 56.996094 48.65625 56.996094 C 49.460938 56.992188 50.265625 56.988281 51.070312 56.984375 C 51.417969 56.984375 51.765625 56.984375 52.113281 56.980469 C 52.613281 56.976562 53.113281 56.976562 53.617188 56.976562 C 53.917969 56.972656 54.21875 56.972656 54.527344 56.972656 C 55.25 57 55.25 57 55.75 57.25 C 55.757812 58.882812 55.761719 60.515625 55.765625 62.148438 C 55.765625 62.707031 55.765625 63.261719 55.769531 63.816406 C 55.773438 64.613281 55.773438 65.414062 55.773438 66.210938 C 55.777344 66.460938 55.777344 66.710938 55.777344 66.96875 C 55.777344 67.199219 55.777344 67.429688 55.777344 67.664062 C 55.777344 67.871094 55.78125 68.074219 55.78125 68.285156 C 55.75 68.75 55.75 68.75 55.5 69 C 55.152344 69.023438 54.804688 69.03125 54.453125 69.03125 C 54.230469 69.03125 54.003906 69.03125 53.773438 69.03125 C 53.523438 69.03125 53.273438 69.03125 53.015625 69.027344 C 52.617188 69.027344 52.617188 69.027344 52.210938 69.027344 C 51.351562 69.027344 50.488281 69.027344 49.625 69.023438 C 49.09375 69.023438 48.5625 69.023438 48.03125 69.023438 C 46.058594 69.023438 44.082031 69.019531 42.109375 69.015625 C 37.699219 69.011719 33.292969 69.003906 28.75 69 C 28.75 78.984375 28.75 88.964844 28.75 99.25 C 35.679688 99.25 42.609375 99.25 49.75 99.25 C 49.75 103.210938 49.75 107.171875 49.75 111.25 C 38.859375 111.25 27.96875 111.25 16.75 111.25 C 16.738281 97.71875 16.738281 97.71875 16.738281 92.066406 C 16.734375 88.15625 16.734375 84.25 16.730469 80.339844 C 16.730469 77.492188 16.726562 74.648438 16.726562 71.800781 C 16.726562 70.292969 16.726562 68.785156 16.722656 67.277344 C 16.722656 65.859375 16.722656 64.441406 16.722656 63.023438 C 16.722656 62.503906 16.722656 61.980469 16.71875 61.457031 C 16.71875 60.75 16.71875 60.039062 16.71875 59.332031 C 16.71875 59.121094 16.71875 58.910156 16.71875 58.695312 C 16.722656 57.277344 16.722656 57.277344 17 57 C 17.59375 56.976562 18.179688 56.96875 18.773438 56.972656 C 19.050781 56.972656 19.050781 56.972656 19.335938 56.972656 C 19.949219 56.972656 20.566406 56.972656 21.179688 56.976562 C 21.605469 56.976562 22.03125 56.976562 22.457031 56.976562 C 23.578125 56.976562 24.703125 56.980469 25.824219 56.984375 C 26.96875 56.984375 28.113281 56.988281 29.257812 56.988281 C 31.503906 56.992188 33.753906 56.996094 36 57 C 36 56.761719 36 56.523438 36 56.28125 C 35.992188 54.046875 35.988281 51.8125 35.988281 49.582031 C 35.984375 48.433594 35.984375 47.285156 35.980469 46.136719 C 35.976562 45.03125 35.976562 43.921875 35.976562 42.816406 C 35.976562 42.390625 35.976562 41.96875 35.972656 41.546875 C 35.972656 40.953125 35.972656 40.363281 35.972656 39.773438 C 35.972656 39.597656 35.96875 39.417969 35.96875 39.238281 C 35.972656 37.894531 35.992188 37.71875 37.328125 37.71875 Z M 37.328125 37.71875 "/>
<path style=" stroke:none;fill-rule:nonzero;fill:rgb(0%,0%,0%);fill-opacity:1;" d="M 18.4375 16.714844 C 18.75 16.71875 18.75 16.71875 19.070312 16.71875 C 19.289062 16.71875 19.507812 16.71875 19.734375 16.71875 C 20.476562 16.714844 21.21875 16.71875 21.957031 16.71875 C 22.488281 16.71875 23.015625 16.71875 23.546875 16.714844 C 24.988281 16.714844 26.429688 16.714844 27.871094 16.714844 C 29.375 16.71875 30.878906 16.714844 32.386719 16.714844 C 34.914062 16.714844 37.441406 16.714844 39.96875 16.71875 C 42.898438 16.71875 45.824219 16.71875 48.75 16.71875 C 51.257812 16.714844 53.769531 16.714844 56.277344 16.714844 C 57.777344 16.714844 59.277344 16.714844 60.777344 16.714844 C 62.1875 16.714844 63.597656 16.714844 65.007812 16.71875 C 65.527344 16.71875 66.046875 16.71875 66.566406 16.71875 C 67.269531 16.714844 67.976562 16.71875 68.679688 16.71875 C 68.890625 16.71875 69.097656 16.71875 69.3125 16.714844 C 70.722656 16.722656 70.722656 16.722656 71 17 C 71.023438 17.59375 71.03125 18.179688 71.027344 18.773438 C 71.027344 18.957031 71.027344 19.144531 71.027344 19.335938 C 71.027344 19.949219 71.027344 20.566406 71.023438 21.179688 C 71.023438 21.605469 71.023438 22.03125 71.023438 22.457031 C 71.023438 23.578125 71.019531 24.703125 71.015625 25.824219 C 71.015625 26.96875 71.011719 28.113281 71.011719 29.257812 C 71.007812 31.503906 71.003906 33.753906 71 36 C 71.238281 36 71.476562 36 71.71875 36 C 73.953125 35.992188 76.1875 35.988281 78.417969 35.988281 C 79.566406 35.984375 80.714844 35.984375 81.863281 35.980469 C 82.96875 35.976562 84.078125 35.976562 85.183594 35.976562 C 85.609375 35.976562 86.03125 35.976562 86.453125 35.972656 C 87.046875 35.972656 87.636719 35.972656 88.226562 35.972656 C 88.402344 35.972656 88.582031 35.96875 88.761719 35.96875 C 89.972656 35.972656 89.972656 35.972656 90.25 36.25 C 90.273438 36.609375 90.28125 36.972656 90.277344 37.335938 C 90.277344 37.5625 90.277344 37.792969 90.277344 38.03125 C 90.277344 38.28125 90.277344 38.53125 90.273438 38.789062 C 90.273438 39.171875 90.273438 39.171875 90.273438 39.5625 C 90.273438 40.378906 90.269531 41.199219 90.265625 42.015625 C 90.265625 42.570312 90.261719 43.121094 90.261719 43.675781 C 90.257812 45.03125 90.253906 46.390625 90.25 47.75 C 89.503906 48.125 88.828125 48.03125 87.996094 48.027344 C 87.816406 48.027344 87.632812 48.027344 87.449219 48.027344 C 86.851562 48.027344 86.253906 48.027344 85.65625 48.023438 C 85.242188 48.023438 84.828125 48.023438 84.414062 48.023438 C 83.320312 48.023438 82.230469 48.019531 81.140625 48.015625 C 80.027344 48.015625 78.914062 48.011719 77.800781 48.011719 C 75.617188 48.007812 73.433594 48.003906 71.25 48 C 71.246094 48.21875 71.238281 48.433594 71.234375 48.65625 C 71.214844 49.460938 71.195312 50.265625 71.171875 51.070312 C 71.160156 51.417969 71.152344 51.765625 71.144531 52.113281 C 71.132812 52.613281 71.117188 53.113281 71.105469 53.617188 C 71.09375 53.917969 71.085938 54.21875 71.078125 54.527344 C 71 55.25 71 55.25 70.5 55.75 C 70.015625 55.8125 70.015625 55.8125 69.414062 55.8125 C 69.191406 55.8125 68.964844 55.8125 68.734375 55.8125 C 68.492188 55.8125 68.25 55.808594 68 55.808594 C 67.75 55.808594 67.503906 55.808594 67.246094 55.808594 C 66.71875 55.804688 66.195312 55.804688 65.667969 55.800781 C 64.863281 55.796875 64.054688 55.796875 63.246094 55.796875 C 62.738281 55.796875 62.226562 55.792969 61.71875 55.792969 C 61.472656 55.792969 61.230469 55.792969 60.980469 55.792969 C 60.757812 55.789062 60.535156 55.789062 60.304688 55.785156 C 60.007812 55.785156 60.007812 55.785156 59.703125 55.785156 C 59.25 55.75 59.25 55.75 59 55.5 C 58.976562 55.152344 58.96875 54.804688 58.96875 54.453125 C 58.96875 54.117188 58.96875 54.117188 58.96875 53.773438 C 58.96875 53.523438 58.96875 53.273438 58.972656 53.015625 C 58.972656 52.75 58.972656 52.484375 58.972656 52.210938 C 58.972656 51.351562 58.972656 50.488281 58.976562 49.625 C 58.976562 49.09375 58.976562 48.5625 58.976562 48.03125 C 58.976562 46.058594 58.980469 44.082031 58.984375 42.109375 C 58.988281 37.699219 58.996094 33.292969 59 28.75 C 49.015625 28.75 39.035156 28.75 28.75 28.75 C 28.75 35.679688 28.75 42.609375 28.75 49.75 C 24.789062 49.75 20.828125 49.75 16.75 49.75 C 16.746094 45.484375 16.738281 41.21875 16.738281 36.953125 C 16.734375 34.972656 16.734375 32.992188 16.730469 31.011719 C 16.730469 29.285156 16.726562 27.558594 16.726562 25.835938 C 16.726562 24.921875 16.726562 24.003906 16.722656 23.089844 C 16.722656 22.074219 16.722656 21.054688 16.722656 20.035156 C 16.722656 19.730469 16.71875 19.425781 16.71875 19.109375 C 16.71875 18.832031 16.71875 18.558594 16.71875 18.273438 C 16.71875 18.03125 16.71875 17.789062 16.71875 17.542969 C 16.78125 16.4375 17.5 16.71875 18.4375 16.714844 Z M 18.4375 16.714844 "/>
<path style=" stroke:none;fill-rule:nonzero;fill:rgb(0%,0%,0%);fill-opacity:1;" d="M 78.25 16.75 C 89.140625 16.75 100.03125 16.75 111.25 16.75 C 111.261719 30.28125 111.261719 30.28125 111.261719 35.933594 C 111.265625 39.84375 111.265625 43.75 111.269531 47.660156 C 111.269531 50.507812 111.273438 53.351562 111.273438 56.199219 C 111.273438 57.707031 111.273438 59.214844 111.277344 60.722656 C 111.277344 62.140625 111.277344 63.558594 111.277344 64.976562 C 111.277344 65.496094 111.277344 66.019531 111.28125 66.542969 C 111.28125 67.25 111.28125 67.960938 111.28125 68.667969 C 111.28125 68.984375 111.28125 68.984375 111.28125 69.304688 C 111.277344 70.722656 111.277344 70.722656 111 71 C 110.40625 71.023438 109.820312 71.03125 109.226562 71.027344 C 109.042969 71.027344 108.855469 71.027344 108.664062 71.027344 C 108.050781 71.027344 107.433594 71.027344 106.820312 71.023438 C 106.394531 71.023438 105.96875 71.023438 105.542969 71.023438 C 104.421875 71.023438 103.296875 71.019531 102.175781 71.015625 C 101.03125 71.015625 99.886719 71.011719 98.742188 71.011719 C 96.496094 71.007812 94.246094 71.003906 92 71 C 92 71.238281 92 71.476562 92 71.71875 C 92.007812 73.953125 92.011719 76.1875 92.011719 78.417969 C 92.015625 79.566406 92.015625 80.714844 92.019531 81.863281 C 92.023438 82.96875 92.023438 84.078125 92.023438 85.183594 C 92.023438 85.609375 92.023438 86.03125 92.027344 86.453125 C 92.027344 87.046875 92.027344 87.636719 92.027344 88.226562 C 92.027344 88.402344 92.03125 88.582031 92.03125 88.761719 C 92.027344 89.972656 92.027344 89.972656 91.75 90.25 C 91.390625 90.273438 91.03125 90.28125 90.671875 90.28125 C 90.441406 90.28125 90.210938 90.285156 89.976562 90.285156 C 89.726562 90.285156 89.476562 90.285156 89.21875 90.28125 C 88.964844 90.285156 88.710938 90.285156 88.449219 90.285156 C 87.910156 90.285156 87.371094 90.285156 86.832031 90.28125 C 86.003906 90.28125 85.175781 90.28125 84.347656 90.285156 C 83.824219 90.285156 83.304688 90.285156 82.78125 90.28125 C 82.40625 90.285156 82.40625 90.285156 82.023438 90.285156 C 81.796875 90.285156 81.566406 90.28125 81.328125 90.28125 C 81.128906 90.28125 80.925781 90.28125 80.714844 90.28125 C 80.25 90.25 80.25 90.25 80 90 C 79.976562 89.40625 79.96875 88.820312 79.972656 88.226562 C 79.972656 88.042969 79.972656 87.855469 79.972656 87.664062 C 79.972656 87.050781 79.972656 86.433594 79.976562 85.820312 C 79.976562 85.394531 79.976562 84.96875 79.976562 84.542969 C 79.976562 83.421875 79.980469 82.296875 79.984375 81.175781 C 79.984375 80.03125 79.988281 78.886719 79.988281 77.742188 C 79.992188 75.496094 79.996094 73.246094 80 71 C 79.78125 71 79.566406 71.003906 79.34375 71.003906 C 78.539062 71.007812 77.734375 71.011719 76.929688 71.015625 C 76.582031 71.015625 76.234375 71.015625 75.886719 71.019531 C 75.386719 71.023438 74.886719 71.023438 74.382812 71.023438 C 74.082031 71.027344 73.78125 71.027344 73.472656 71.027344 C 72.75 71 72.75 71 72.25 70.75 C 72.242188 69.117188 72.238281 67.484375 72.234375 65.851562 C 72.234375 65.292969 72.234375 64.738281 72.230469 64.183594 C 72.226562 63.386719 72.226562 62.585938 72.226562 61.789062 C 72.222656 61.539062 72.222656 61.289062 72.222656 61.03125 C 72.222656 60.800781 72.222656 60.570312 72.222656 60.335938 C 72.222656 60.128906 72.21875 59.925781 72.21875 59.714844 C 72.25 59.25 72.25 59.25 72.5 59 C 72.847656 58.976562 73.195312 58.96875 73.546875 58.96875 C 73.882812 58.96875 73.882812 58.96875 74.226562 58.96875 C 74.476562 58.96875 74.726562 58.96875 74.984375 58.972656 C 75.25 58.972656 75.515625 58.972656 75.789062 58.972656 C 76.648438 58.972656 77.511719 58.972656 78.375 58.976562 C 78.90625 58.976562 79.4375 58.976562 79.96875 58.976562 C 81.941406 58.976562 83.917969 58.980469 85.890625 58.984375 C 92.503906 58.992188 92.503906 58.992188 99.25 59 C 99.25 49.015625 99.25 39.035156 99.25 28.75 C 92.320312 28.75 85.390625 28.75 78.25 28.75 C 78.25 24.789062 78.25 20.828125 78.25 16.75 Z M 78.25 16.75 "/>
<path style=" stroke:none;fill-rule:nonzero;fill:rgb(17.647059%,17.647059%,17.647059%);fill-opacity:1;" d="M 18.253906 56.96875 C 18.519531 56.96875 18.519531 56.96875 18.796875 56.972656 C 18.984375 56.972656 19.171875 56.972656 19.363281 56.972656 C 19.988281 56.972656 20.613281 56.972656 21.234375 56.976562 C 21.667969 56.976562 22.097656 56.976562 22.527344 56.976562 C 23.667969 56.976562 24.804688 56.980469 25.941406 56.984375 C 27.101562 56.984375 28.261719 56.988281 29.417969 56.988281 C 31.695312 56.992188 33.972656 56.996094 36.25 57 C 36.25 57.164062 36.25 57.328125 36.25 57.5 C 29.980469 57.5 23.710938 57.5 17.25 57.5 C 17.25 75.074219 17.25 92.644531 17.25 110.75 C 27.976562 110.75 38.699219 110.75 49.75 110.75 C 49.75 110.914062 49.75 111.078125 49.75 111.25 C 38.859375 111.25 27.96875 111.25 16.75 111.25 C 16.738281 97.71875 16.738281 97.71875 16.738281 92.066406 C 16.734375 88.15625 16.734375 84.25 16.730469 80.339844 C 16.730469 77.492188 16.726562 74.648438 16.726562 71.800781 C 16.726562 70.292969 16.726562 68.785156 16.722656 67.277344 C 16.722656 65.859375 16.722656 64.441406 16.722656 63.023438 C 16.722656 62.503906 16.722656 61.980469 16.71875 61.457031 C 16.71875 60.75 16.71875 60.039062 16.71875 59.332031 C 16.71875 59.121094 16.71875 58.910156 16.71875 58.695312 C 16.722656 56.972656 16.722656 56.972656 18.253906 56.96875 Z M 18.253906 56.96875 "/>
<path style=" stroke:none;fill-rule:nonzero;fill:rgb(16.862746%,16.862746%,16.862746%);fill-opacity:1;" d="M 99.75 78 C 101.347656 77.992188 102.945312 77.988281 104.542969 77.984375 C 105.085938 77.984375 105.628906 77.984375 106.175781 77.980469 C 106.953125 77.976562 107.734375 77.976562 108.515625 77.976562 C 108.882812 77.972656 108.882812 77.972656 109.257812 77.972656 C 109.480469 77.972656 109.707031 77.972656 109.9375 77.972656 C 110.238281 77.972656 110.238281 77.972656 110.542969 77.96875 C 111 78 111 78 111.25 78.25 C 111.273438 78.671875 111.28125 79.097656 111.28125 79.523438 C 111.28125 79.796875 111.28125 80.074219 111.285156 80.355469 C 111.28125 80.8125 111.28125 80.8125 111.28125 81.28125 C 111.28125 81.757812 111.28125 81.757812 111.285156 82.246094 C 111.285156 83.125 111.285156 84.003906 111.285156 84.878906 C 111.28125 85.796875 111.285156 86.714844 111.285156 87.628906 C 111.285156 89.167969 111.285156 90.707031 111.28125 92.246094 C 111.28125 94.03125 111.28125 95.8125 111.28125 97.59375 C 111.285156 99.121094 111.285156 100.648438 111.285156 102.175781 C 111.285156 103.089844 111.285156 104.003906 111.285156 104.917969 C 111.285156 105.933594 111.285156 106.953125 111.28125 107.96875 C 111.28125 108.273438 111.285156 108.578125 111.285156 108.894531 C 111.28125 109.167969 111.28125 109.445312 111.28125 109.726562 C 111.28125 110.089844 111.28125 110.089844 111.28125 110.457031 C 111.25 111 111.25 111 111 111.25 C 110.308594 111.273438 109.621094 111.28125 108.929688 111.28125 C 108.710938 111.28125 108.488281 111.28125 108.261719 111.28125 C 107.523438 111.28125 106.78125 111.28125 106.039062 111.277344 C 105.507812 111.277344 104.976562 111.277344 104.449219 111.277344 C 103.007812 111.277344 101.5625 111.277344 100.121094 111.273438 C 98.613281 111.273438 97.109375 111.273438 95.605469 111.273438 C 92.75 111.273438 89.894531 111.269531 87.042969 111.269531 C 83.792969 111.265625 80.546875 111.265625 77.300781 111.261719 C 70.617188 111.261719 63.933594 111.253906 57.25 111.25 C 57.25 111.085938 57.25 110.921875 57.25 110.75 C 74.90625 110.75 92.558594 110.75 110.75 110.75 C 110.75 100.109375 110.75 89.464844 110.75 78.5 C 107.039062 78.5 103.324219 78.5 99.5 78.5 C 99.582031 78.335938 99.664062 78.171875 99.75 78 Z M 99.75 78 "/>
<path style=" stroke:none;fill-rule:nonzero;fill:rgb(16.470589%,16.470589%,16.470589%);fill-opacity:1;" d="M 78.25 16.75 C 89.140625 16.75 100.03125 16.75 111.25 16.75 C 111.25 34.570312 111.25 52.390625 111.25 70.75 C 110.835938 70.832031 110.425781 70.914062 110 71 C 110.246094 70.917969 110.496094 70.835938 110.75 70.75 C 110.75 53.09375 110.75 35.441406 110.75 17.25 C 100.109375 17.25 89.464844 17.25 78.5 17.25 C 78.5 20.960938 78.5 24.675781 78.5 28.5 C 78.417969 28.5 78.335938 28.5 78.25 28.5 C 78.25 24.621094 78.25 20.746094 78.25 16.75 Z M 78.25 16.75 "/>
<path style=" stroke:none;fill-rule:nonzero;fill:rgb(17.647059%,17.647059%,17.647059%);fill-opacity:1;" d="M 18.433594 16.71875 C 18.640625 16.71875 18.847656 16.71875 19.0625 16.71875 C 19.28125 16.71875 19.5 16.71875 19.722656 16.71875 C 20.460938 16.71875 21.199219 16.71875 21.941406 16.722656 C 22.464844 16.722656 22.992188 16.722656 23.519531 16.722656 C 24.957031 16.722656 26.394531 16.722656 27.828125 16.726562 C 29.328125 16.726562 30.824219 16.726562 32.324219 16.726562 C 35.164062 16.726562 38.003906 16.730469 40.847656 16.730469 C 44.078125 16.734375 47.3125 16.734375 50.542969 16.738281 C 57.195312 16.738281 63.847656 16.746094 70.5 16.75 C 70.5 16.914062 70.5 17.078125 70.5 17.25 C 52.925781 17.25 35.355469 17.25 17.25 17.25 C 17.332031 27.976562 17.414062 38.699219 17.5 49.75 C 17.253906 49.75 17.003906 49.75 16.75 49.75 C 16.746094 45.484375 16.738281 41.21875 16.738281 36.953125 C 16.734375 34.972656 16.734375 32.992188 16.730469 31.011719 C 16.730469 29.285156 16.726562 27.558594 16.726562 25.835938 C 16.726562 24.921875 16.726562 24.003906 16.722656 23.089844 C 16.722656 22.074219 16.722656 21.054688 16.722656 20.035156 C 16.722656 19.730469 16.71875 19.425781 16.71875 19.109375 C 16.71875 18.832031 16.71875 18.558594 16.71875 18.273438 C 16.71875 18.03125 16.71875 17.789062 16.71875 17.542969 C 16.78125 16.441406 17.496094 16.71875 18.433594 16.71875 Z M 18.433594 16.71875 "/>
<path style=" stroke:none;fill-rule:nonzero;fill:rgb(10.980392%,10.980392%,10.980392%);fill-opacity:1;" d="M 18.253906 56.96875 C 18.519531 56.96875 18.519531 56.96875 18.796875 56.972656 C 18.984375 56.972656 19.171875 56.972656 19.363281 56.972656 C 19.988281 56.972656 20.613281 56.972656 21.234375 56.976562 C 21.667969 56.976562 22.097656 56.976562 22.527344 56.976562 C 23.667969 56.976562 24.804688 56.980469 25.941406 56.984375 C 27.101562 56.984375 28.261719 56.988281 29.417969 56.988281 C 31.695312 56.992188 33.972656 56.996094 36.25 57 C 36.25 57.164062 36.25 57.328125 36.25 57.5 C 29.980469 57.5 23.710938 57.5 17.25 57.5 C 17.167969 75.15625 17.085938 92.808594 17 111 C 17.414062 111 17.824219 111 18.25 111 C 18.25 111.082031 18.25 111.164062 18.25 111.25 C 17.753906 111.25 17.261719 111.25 16.75 111.25 C 16.746094 104.214844 16.738281 97.175781 16.738281 90.140625 C 16.734375 86.875 16.734375 83.605469 16.730469 80.339844 C 16.730469 77.492188 16.726562 74.648438 16.726562 71.800781 C 16.726562 70.292969 16.726562 68.785156 16.722656 67.277344 C 16.722656 65.859375 16.722656 64.441406 16.722656 63.023438 C 16.722656 62.503906 16.722656 61.980469 16.71875 61.457031 C 16.71875 60.75 16.71875 60.039062 16.71875 59.332031 C 16.71875 59.121094 16.71875 58.910156 16.71875 58.695312 C 16.722656 56.972656 16.722656 56.972656 18.253906 56.96875 Z M 18.253906 56.96875 "/>
<path style=" stroke:none;fill-rule:nonzero;fill:rgb(15.686275%,15.686275%,15.686275%);fill-opacity:1;" d="M 36.25 37.75 C 37.882812 37.742188 39.515625 37.738281 41.148438 37.734375 C 41.707031 37.734375 42.261719 37.734375 42.816406 37.730469 C 43.613281 37.726562 44.414062 37.726562 45.210938 37.726562 C 45.585938 37.722656 45.585938 37.722656 45.96875 37.722656 C 46.199219 37.722656 46.429688 37.722656 46.664062 37.722656 C 46.871094 37.722656 47.074219 37.71875 47.285156 37.71875 C 47.75 37.75 47.75 37.75 48 38 C 48.027344 38.433594 48.035156 38.867188 48.035156 39.300781 C 48.039062 39.578125 48.039062 39.855469 48.042969 40.144531 C 48.042969 40.445312 48.042969 40.75 48.042969 41.0625 C 48.042969 41.523438 48.042969 41.523438 48.042969 41.996094 C 48.046875 42.648438 48.046875 43.304688 48.046875 43.960938 C 48.046875 44.632812 48.046875 45.304688 48.050781 45.976562 C 48.054688 46.941406 48.058594 47.90625 48.058594 48.875 C 48.058594 49.175781 48.0625 49.476562 48.0625 49.785156 C 48.0625 50.066406 48.0625 50.347656 48.0625 50.632812 C 48.0625 50.878906 48.0625 51.125 48.0625 51.378906 C 48 52 48 52 47.5 52.75 C 47.5 47.964844 47.5 43.179688 47.5 38.25 C 43.703125 38.332031 39.910156 38.414062 36 38.5 C 36.082031 38.253906 36.164062 38.003906 36.25 37.75 Z M 36.25 37.75 "/>
<path style=" stroke:none;fill-rule:nonzero;fill:rgb(6.666667%,6.666667%,6.666667%);fill-opacity:1;" d="M 47.75 52 C 47.832031 52 47.914062 52 48 52 C 48 53.648438 48 55.300781 48 57 C 48.519531 56.996094 49.039062 56.996094 49.578125 56.992188 C 50.078125 56.988281 50.582031 56.988281 51.082031 56.984375 C 51.433594 56.984375 51.785156 56.984375 52.132812 56.980469 C 52.636719 56.976562 53.136719 56.976562 53.640625 56.976562 C 54.09375 56.972656 54.09375 56.972656 54.554688 56.972656 C 55.25 57 55.25 57 55.5 57.25 C 55.523438 57.988281 55.527344 58.722656 55.523438 59.460938 C 55.523438 59.683594 55.523438 59.90625 55.523438 60.132812 C 55.523438 60.84375 55.519531 61.554688 55.515625 62.265625 C 55.515625 62.746094 55.511719 63.226562 55.511719 63.707031 C 55.507812 64.886719 55.503906 66.070312 55.5 67.25 C 55.417969 67.25 55.335938 67.25 55.25 67.25 C 55.25 64.03125 55.25 60.816406 55.25 57.5 C 52.792969 57.511719 52.792969 57.511719 50.335938 57.523438 C 49.878906 57.523438 49.878906 57.523438 49.414062 57.523438 C 49.101562 57.527344 48.789062 57.527344 48.46875 57.527344 C 47.75 57.5 47.75 57.5 47.5 57.25 C 47.476562 56.507812 47.464844 55.773438 47.46875 55.03125 C 47.46875 54.824219 47.46875 54.617188 47.464844 54.402344 C 47.464844 54.203125 47.464844 54.003906 47.46875 53.796875 C 47.46875 53.617188 47.46875 53.433594 47.46875 53.246094 C 47.5 52.75 47.5 52.75 47.75 52 Z M 47.75 52 "/>
<path style=" stroke:none;fill-rule:nonzero;fill:rgb(15.686275%,15.686275%,15.686275%);fill-opacity:1;" d="M 110 16.75 C 110.414062 16.75 110.824219 16.75 111.25 16.75 C 111.25 18.398438 111.25 20.050781 111.25 21.75 C 111.167969 21.75 111.085938 21.75 111 21.75 C 110.917969 20.347656 110.835938 18.945312 110.75 17.5 C 110.503906 17.417969 110.253906 17.335938 110 17.25 C 110 17.085938 110 16.921875 110 16.75 Z M 110 16.75 "/>
</g>
</svg>
