<svg width="24" height="24" viewBox="0 0 24 24" fill="none" xmlns="http://www.w3.org/2000/svg">
<path d="M21.8137 7.05356C21.5812 6.1648 20.8837 5.4673 20.0025 5.23105C18.4087 4.7998 12.0037 4.7998 12.0037 4.7998C12.0037 4.7998 5.5987 4.7998 4.0012 5.23105C3.11995 5.4673 2.4262 6.1648 2.18995 7.05356C1.76245 8.66231 1.76245 12.0148 1.76245 12.0148C1.76245 12.0148 1.76245 15.3673 2.18995 16.9761C2.4262 17.8611 3.11995 18.5323 4.0012 18.7686C5.5987 19.1998 12.0037 19.1998 12.0037 19.1998C12.0037 19.1998 18.4087 19.1998 20.0062 18.7686C20.8875 18.5323 21.5812 17.8611 21.8175 16.9761C22.245 15.3673 22.245 12.0148 22.245 12.0148C22.245 12.0148 22.245 8.66231 21.8175 7.05356H21.8137ZM9.90745 15.0598V8.9698L15.2587 12.0148L9.90745 15.0598Z" fill="black"/>
</svg>
